<?xml version="1.0" encoding="iso-8859-1"?>
<!-- Generator: Adobe Illustrator 19.0.0, SVG Export Plug-In . SVG Version: 6.00 Build 0)  -->
<svg version="1.1" id="Capa_1" xmlns="http://www.w3.org/2000/svg" xmlns:xlink="http://www.w3.org/1999/xlink" x="0px" y="0px"
	 viewBox="0 0 512 512" style="enable-background:new 0 0 512 512;" xml:space="preserve">
<g>
	<g>
		<path d="M504.954,153.285l-241-151c-4.863-3.047-11.045-3.047-15.908,0l-241,151C2.666,156.024,0,160.829,0,166
			s2.666,9.976,7.046,12.715l241,150c2.432,1.523,5.2,2.285,7.954,2.285c2.754,0,5.522-0.762,7.954-2.285l241-150
			c4.38-2.739,7.046-7.544,7.046-12.715C512,160.829,509.334,156.024,504.954,153.285z"/>
	</g>
</g>
<g>
	<g>
		<path d="M504.954,333.285l-23.355-14.597L263.954,454.091c-2.432,1.523-5.2,2.285-7.954,2.285c-2.754,0-5.522-0.762-7.954-2.285
			L30.401,318.688L7.046,333.285C2.666,336.024,0,340.829,0,346c0,5.171,2.666,9.976,7.046,12.715l241,151
			c2.432,1.523,5.2,2.285,7.954,2.285c2.754,0,5.522-0.762,7.954-2.285l241-151c4.38-2.739,7.046-7.544,7.046-12.715
			C512,340.829,509.334,336.024,504.954,333.285z"/>
	</g>
</g>
<g>
	<g>
		<path d="M504.954,243.285l-23.355-14.597L263.954,364.091c-2.432,1.523-5.2,2.285-7.954,2.285c-2.754,0-5.522-0.762-7.954-2.285
			L30.401,228.688L7.046,243.285C2.666,246.024,0,250.829,0,256s2.666,9.976,7.046,12.715l241,150
			c2.432,1.523,5.2,2.285,7.954,2.285c2.754,0,5.522-0.762,7.954-2.285l241-150c4.38-2.739,7.046-7.544,7.046-12.715
			C512,250.829,509.334,246.024,504.954,243.285z"/>
	</g>
</g>
<g>
</g>
<g>
</g>
<g>
</g>
<g>
</g>
<g>
</g>
<g>
</g>
<g>
</g>
<g>
</g>
<g>
</g>
<g>
</g>
<g>
</g>
<g>
</g>
<g>
</g>
<g>
</g>
<g>
</g>
</svg>
